<?xml version="1.0" standalone="no"?>
<!DOCTYPE svg PUBLIC "-//W3C//DTD SVG 1.1//EN" "http://www.w3.org/Graphics/SVG/1.1/DTD/svg11.dtd" >
<svg xmlns="http://www.w3.org/2000/svg" xmlns:xlink="http://www.w3.org/1999/xlink" version="1.1">
<metadata></metadata>
<defs>
<font id="oliver_font_-_lightregular" horiz-adv-x="1228" >
<font-face units-per-em="2048" ascent="1638" descent="-410" />
<missing-glyph horiz-adv-x="614" />
<glyph horiz-adv-x="0" />
<glyph horiz-adv-x="682" />
<glyph unicode=" "  horiz-adv-x="614" />
<glyph unicode="&#x09;" horiz-adv-x="614" />
<glyph unicode="&#xa0;" horiz-adv-x="614" />
<glyph unicode="!" d="M604 41q0 -17 12 -29t29 -12t30 12t13 29t-13 29t-30 12t-29 -12t-12 -29zM627 137h41v1297h-41v-1297z" />
<glyph unicode="&#x22;" />
<glyph unicode="#" />
<glyph unicode="&#x26;" />
<glyph unicode="'" />
<glyph unicode="(" d="M434 874q-34 -224 23 -454q19 -72 45.5 -141t50.5 -116t47.5 -86t36 -56t16.5 -21l29 23l-7 9q-7 10 -19.5 29t-28 44t-33.5 60t-35.5 74t-34.5 88.5t-30 100.5q-57 224 -23 442q38 280 213 543l-31 21q-178 -269 -219 -560z" />
<glyph unicode=")" horiz-adv-x="749" d="M102 0l31 -23q182 274 223 566q32 243 -24 463q-13 53 -31.5 104.5t-37 92t-37 76.5t-35.5 63.5t-30 46.5t-21.5 30.5t-8.5 12.5l-27 -25l7 -10q7 -10 19.5 -29t28.5 -44.5t34 -61.5t35.5 -75.5t35 -90t29.5 -101.5q59 -222 24 -446q-42 -289 -215 -549z" />
<glyph unicode="*" />
<glyph unicode="," horiz-adv-x="808" d="M172 10q0 -98 27 -98q16 0 39.5 39.5t23.5 58.5q0 20 -13 32.5t-32 12.5t-32 -12.5t-13 -32.5z" />
<glyph unicode="-" horiz-adv-x="942" d="M164 698h614v35h-614v-35z" />
<glyph unicode="." horiz-adv-x="737" d="M82 53q0 -22 15 -37.5t38 -15.5q22 0 37.5 15.5t15.5 37.5q0 23 -15.5 38t-37.5 15q-23 0 -38 -15t-15 -38z" />
<glyph unicode="/" d="M283 14l34 -14l586 1419l-35 15z" />
<glyph unicode="0" horiz-adv-x="899" d="M61 717q0 194 52 359.5t141.5 261.5t194.5 96q106 0 195.5 -96t141.5 -261.5t52 -359.5t-52 -359.5t-141.5 -261.5t-195.5 -96q-105 0 -194.5 96t-141.5 261.5t-52 359.5zM98 717q0 -181 47 -335.5t128 -244.5t176 -90q96 0 177 90t128 244t47 336q0 183 -47 337 t-128 243t-177 89q-95 0 -176 -89t-128 -243.5t-47 -336.5z" />
<glyph unicode="1" horiz-adv-x="401" d="M20 1243l19 -31l264 156v-1368h37v1434z" />
<glyph unicode="2" horiz-adv-x="950" d="M61 0h828v43h-737q159 166 325 377q371 461 371 665q0 158 -95.5 253.5t-252.5 95.5q-109 0 -190 -50t-134 -124q-28 -38 -50.5 -80.5t-33.5 -68.5l-10 -26l31 -18q0 4 8.5 25t30 61t47.5 76q116 162 297 162h4q145 0 229 -84q84 -81 84 -222q0 -189 -356 -634 q-78 -100 -168.5 -203t-141.5 -156l-51 -53z" />
<glyph unicode="3" horiz-adv-x="1013" d="M121 225l5 -7q4 -7 12 -18t18.5 -24.5t26.5 -30.5t34 -32q131 -113 303 -113q193 0 287 137q74 110 74 271q0 119 -56 196q-90 131 -315 131v-37q208 0 285 -114q47 -67 47 -176q0 -153 -66 -250q-83 -121 -256 -121q-156 0 -276 102q-26 23 -48.5 49t-31.5 41l-10 15 l-17 -11l17 11zM121 1206l33 -16l1 2q62 98 166 154q93 49 201 49q173 0 254 -121q66 -97 66 -250q0 -110 -47 -174q-77 -115 -285 -115v-37q226 0 315 129q56 80 56 197q0 162 -74 272q-97 138 -285 138q-170 0 -305 -113q-18 -16 -34 -33.5t-26.5 -31.5t-18.5 -25t-12 -18 z" />
<glyph unicode="4" horiz-adv-x="960" d="M61 496h668v-496h37v496h133v36h-133v902zM135 532l594 791v-791h-594z" />
<glyph unicode="5" horiz-adv-x="970" d="M61 207q0 -28 54 -70q54 -37 112 -63q165 -74 275 -74q153 0 260 66q147 94 147 299q0 223 -112 362q-53 68 -125 104.5t-154 36.5q-183 0 -407 -135v664l696 -2v39h-733v-772l28 20q2 2 24 16t65 36.5t93 43.5t113.5 36t120.5 15q72 0 137.5 -32t112.5 -92 q102 -133 102 -340q0 -185 -129 -267q-97 -61 -239 -61q-103 0 -260 72q-49 23 -83 45t-46.5 34.5t-12.5 18.5h-39z" />
<glyph unicode="6" horiz-adv-x="1056" d="M61 758q0 -133 19 -238q47 -268 174 -401q116 -119 287 -119q229 0 352 129q16 17 30 36.5t24 37.5t18 39.5t13 38t8.5 38t5 35t2.5 33t1 27.5v23.5v17.5v2v-2q0 8 -3 29t-19.5 69t-42.5 90q-51 80 -137 127q-105 57 -250 57q-159 0 -279 -88q-57 -43 -92 -93 q-24 -34 -6 -34h43v-2q1 9 13.5 28t40.5 44t65.5 48t94.5 38.5t120 15.5q233 0 348 -161q25 -36 40.5 -78t18.5 -66l2 -24v-4q0 -121 -31 -198q-22 -54 -59 -95q-106 -115 -321 -115q-152 0 -256 107q-124 129 -162 376q-17 108 -17 232q0 298 140 473q62 77 143.5 118.5 t171.5 41.5q183 0 301 -66q29 -16 54.5 -33t35.5 -26l11 -9l30 31q2 2 -15 17.5t-54 37t-86.5 42t-123.5 35t-153 14.5q-102 0 -192.5 -45.5t-157.5 -131.5q-150 -192 -150 -499z" />
<glyph unicode="7" horiz-adv-x="954" d="M61 1397h779l-529 -1383l35 -14l547 1434h-832v-37z" />
<glyph unicode="8" horiz-adv-x="892" d="M61 387q0 140 91 248t225 131q-117 24 -195 117t-78 215q0 140 99 239t239 99q139 0 237.5 -99t98.5 -239q0 -121 -76 -214t-192 -116q137 -23 229 -131t92 -250q0 -160 -112.5 -273.5t-272.5 -113.5t-272.5 113.5t-112.5 273.5zM96 387q0 -146 102 -248t248 -102 t248.5 102t102.5 248t-102.5 248t-248.5 102t-248 -102t-102 -248zM139 1098q0 -126 88.5 -214.5t214.5 -88.5q125 0 213 88.5t88 214.5q0 124 -88.5 212.5t-212.5 88.5q-126 0 -214.5 -88t-88.5 -213z" />
<glyph unicode="9" horiz-adv-x="1056" d="M62 1034.5q-3 -39.5 1 -53.5v-2v2q0 -8 3 -29t19.5 -69.5t43.5 -91.5q55 -83 135 -125q104 -58 250 -58q167 0 281 88q41 31 69.5 67.5t28.5 59.5h-43q-1 -9 -13.5 -27.5t-40.5 -43.5t-65.5 -47.5t-95 -38t-121.5 -15.5q-239 0 -348 160q-24 37 -39 81t-18 63t-3 26v2 q-3 33 -1 73t25 106.5t67 113.5q106 115 319 115q156 0 258 -105q121 -126 160 -377q18 -99 18 -231q0 -299 -139 -473q-128 -162 -317 -162q-165 0 -299 68q-30 15 -55.5 31.5t-35.5 25.5l-10 10l-30 -31q7 -7 20 -18t53 -36t86 -43.5t119 -34t152 -15.5q103 0 194 46 t158 132q147 185 147 500q0 136 -18 237q-44 269 -172 400q-113 119 -289 119q-231 0 -352 -127q-38 -41 -62.5 -94.5t-30.5 -96t-9 -82z" />
<glyph unicode=":" />
<glyph unicode=";" />
<glyph unicode="?" d="M205 1085l37 -8q18 82 77 162q125 158 338 158q219 0 306 -140q47 -74 47 -151v-4q2 -70 -39 -137q-85 -127 -318 -170q-133 -27 -182 -131q-63 -130 4 -355q31 -104 78 -198l33 16l-4 10q-5 10 -13 28t-17.5 40.5t-21 53t-20.5 60.5q-60 216 -6 328q44 87 158 111 q250 47 339 186q51 77 46 160v2q0 86 -52 170q-47 71 -118 110q-91 48 -220 48q-235 0 -368 -174q-29 -38 -50 -82t-27.5 -66t-6.5 -27zM559 41q0 -17 11 -29t28 -12t29 12t12 29t-12 29t-29 12t-28 -12t-11 -29z" />
<glyph unicode="@" />
<glyph unicode="A" horiz-adv-x="1179" d="M61 14l510 1420h37l510 -1418l-37 -14l-215 596h-553l-215 -598zM328 637h524l-262 731z" />
<glyph unicode="B" horiz-adv-x="1101" d="M102 0l394 2h2q88 0 182 16q208 39 301 136q80 77 80 190q0 152 -98 246q-102 95 -295 129q-77 12 -170 12l-357 2v660h359v39h-398v-19v-1390v-23zM131 700l367 -2q118 0 233 45q240 90 240 320q-3 149 -97 237q-38 37 -91 64.5t-96 40t-92 19.5t-66 7.5t-31 0.5l2 -39 q13 0 26 -0.5t60 -6.5t87 -17t90 -36t85 -59q84 -81 84 -211q0 -203 -213 -283q-49 -19 -105 -31.5t-82 -15t-34 -2.5h-367v-31zM141 41v653l357 -2h2h37.5t79 -6.5t108.5 -18.5t111 -39.5t100 -66.5q86 -83 86 -217q0 -96 -68 -164q-39 -39 -102.5 -68t-117.5 -42 t-117 -20.5t-84 -8t-37 -0.5h-355z" />
<glyph unicode="C" horiz-adv-x="1200" d="M102 676q0 201 55.5 367t155.5 266q128 125 303 125h5q97 -1 176.5 -21t122 -42t77 -56t41.5 -45.5t14 -27.5l1 -1l-21 -6l-20 -8q-17 41 -72 80q-116 84 -319 84h-8q-156 0 -269 -113q-96 -92 -149 -260q-50 -155 -50 -342q0 -290 113 -459q117 -173 332 -176h12 q96 0 174.5 17.5t122.5 42t74 49t41 42.5l10 17l39 -16q0 -3 -8 -16.5t-32 -38.5t-56 -46q-134 -92 -365 -92h-12q-229 3 -358.5 182t-129.5 494z" />
<glyph unicode="D" horiz-adv-x="1128" d="M102 0h37h283h8q64 0 143 18q172 40 289 152q185 182 185 510q0 392 -207 590q-115 110 -275 145q-36 8 -69.5 13t-48 4.5t-21.5 -0.5h-324v-1409v-23zM145 43v1348h281h2h26t60.5 -7.5t92 -21.5t100 -46t104.5 -77q193 -184 193 -559q0 -315 -173 -479q-47 -46 -108 -79 t-106.5 -47.5t-98 -22.5t-66 -8.5t-28.5 -0.5h-279z" />
<glyph unicode="E" horiz-adv-x="946" d="M102 0h742v41h-701v1350h701v43l-742 -2v-1432zM119 694h641v41h-641v-41z" />
<glyph unicode="F" horiz-adv-x="946" d="M102 0v1432l742 2v-41l-701 -2v-656h617v-41h-617v-694h-41z" />
<glyph unicode="G" horiz-adv-x="1499" d="M102 719q0 -158 54 -296t155 -239q89 -89 205 -136.5t244 -47.5h2q82 0 158 13.5t127.5 30t107.5 44.5t83 46t68 47.5t50 35.5l10 6v449h-47v-424q-2 -1 -47.5 -34t-66.5 -46t-77 -41.5t-102.5 -42.5t-117.5 -26.5t-146 -12.5q-119 0 -227 44.5t-191 127.5 q-95 94 -146 223.5t-51 278.5q0 137 53.5 261.5t153.5 219.5q93 90 210.5 139.5t236.5 49.5q89 0 175.5 -16t144.5 -37t106 -45t68.5 -37.5t23.5 -16.5l29 37l-8 5q-7 5 -19.5 13t-29.5 17.5t-41 21.5t-50 23q-186 80 -399 80q-127 0 -252 -53t-225 -148 q-107 -101 -164.5 -234.5t-57.5 -279.5z" />
<glyph unicode="H" horiz-adv-x="1064" d="M102 0h41v1423h-41v-1423zM123 688h817v41h-817v-41zM922 12h41v1422h-41v-1422z" />
<glyph unicode="I" horiz-adv-x="364" d="M164 0h37v1434h-37v-1434z" />
<glyph unicode="J" horiz-adv-x="880" d="M101 250v-10q0 -24 8 -62q10 -46 38 -82q78 -96 263 -96q2 0 2 2q202 0 284 148q41 76 41 145v1139h-41v-1139q-2 -66 -37 -127q-69 -124 -247 -127q-167 0 -232 80q-9 11 -15.5 22.5t-10.5 23t-6.5 22.5t-3.5 21.5t-1.5 19.5t0 16.5t1 13t0.5 8.5l1 4l-39 9 q-3 -6 -5 -31z" />
<glyph unicode="K" horiz-adv-x="1001" d="M102 4v1423h41v-665l729 672l27 -29l-631 -582l617 -798l-31 -25l-616 797l-95 -88v-705h-41z" />
<glyph unicode="L" horiz-adv-x="937" d="M102 0l795 2v41l-754 -2v1393h-41v-1434z" />
<glyph unicode="M" horiz-adv-x="1449" d="M102 6h41v1331l547 -1104l557 1094v-1327h39v1411l-37 10l-559 -1097l-549 1110l-39 -11v-1417z" />
<glyph unicode="N" horiz-adv-x="1392" d="M102 0v1434l1090 -1325v1323h37v-1430l-1090 1327v-1329h-37z" />
<glyph unicode="O" horiz-adv-x="1486" d="M102 717q0 194 86 359.5t233.5 261.5t321.5 96t321.5 -96t233.5 -261.5t86 -359.5t-86 -359.5t-233.5 -261.5t-321.5 -96t-321.5 96t-233.5 261.5t-86 359.5zM143 721q0 -137 47.5 -261.5t127.5 -214.5t191.5 -143t233.5 -53q163 0 302 90t220 245t81 337 q0 183 -81 338.5t-220 245.5t-302 90q-122 0 -233.5 -53.5t-191.5 -143.5t-127.5 -215t-47.5 -262z" />
<glyph unicode="P" horiz-adv-x="1058" d="M102 0h39v688h484q177 0 260 92q70 81 70 234q0 41 -5 88q-22 210 -188 291q-82 41 -162 41h-498v-1434zM141 727v670h459q67 0 145 -39q147 -75 168 -260q4 -43 4 -81q0 -141 -61 -210q-74 -80 -231 -80h-484z" />
<glyph unicode="Q" horiz-adv-x="1478" d="M102 715q0 193 85 357t232 259.5t320 95.5t320 -95.5t232 -259.5t85 -357q0 -165 -62 -309t-171 -244l145 -133l-31 -35l-151 137q-166 -131 -367 -131q-130 0 -248 56.5t-203 152.5t-135.5 228t-50.5 278zM141 719q0 -182 80 -336t218 -244t300 -90q180 0 332 113 l-127 114l31 35l133 -118q106 93 167.5 230.5t61.5 295.5q0 136 -47 259.5t-127 213t-191 142t-233 52.5t-232.5 -52.5t-190.5 -142t-127.5 -213t-47.5 -259.5z" />
<glyph unicode="R" horiz-adv-x="1071" d="M102 6v1428h496q80 0 162 -41q68 -34 121 -104t65 -185q5 -47 5 -88q0 -153 -70 -234q-83 -92 -258 -92h-2l348 -690h-45l-344 690h-439v-684h-39zM141 729h482q158 0 229 80q61 69 61 210q0 38 -4 81q-21 182 -166 258q-78 39 -145 39h-457v-668z" />
<glyph unicode="S" horiz-adv-x="1134" d="M57 291q0 -154 176 -232q132 -59 314 -59q251 0 385 104q121 92 121 242q0 192 -90 279q-27 27 -64.5 45.5t-69 27.5t-87 13.5t-83.5 5t-92 0.5q-26 -1 -53 -1t-55 1q-56 2 -104.5 8t-94 25.5t-76.5 50.5q-86 86 -86 282q0 56 29.5 110t83.5 97q132 105 344 105 q152 0 248 -41q79 -29 135 -88q60 -63 72 -131l37 6q0 5 -5 22.5t-24.5 55t-48.5 69.5q-60 63 -150 101q-115 45 -264 45q-226 0 -369 -115q-59 -47 -92 -109.5t-33 -126.5q0 -212 97 -309q36 -35 82 -56.5t106 -29.5t104 -10q26 -1 63 0h54h51h60q41 -2 95.5 -8.5t94 -24.5 t68.5 -47q80 -77 80 -252q0 -130 -109 -213q-129 -96 -360 -96q-170 0 -299 57q-152 68 -152 197h-39z" />
<glyph unicode="T" horiz-adv-x="1081" d="M20 1399h1041v35h-1041v-35zM528 0h35v1411h-35v-1411z" />
<glyph unicode="U" horiz-adv-x="1255" d="M101.5 428.5q-1.5 -17.5 5.5 -52.5t17 -71.5t35 -81t60 -80.5q134 -143 404 -143q273 0 409 145q35 36 60.5 81.5t36.5 79t17 72.5t6.5 50.5t0.5 24.5v981h-37v-981v-22.5t-5.5 -47t-15.5 -67t-32.5 -74t-54.5 -74.5q-130 -133 -385 -133q-252 0 -379 133 q-107 111 -107 285v974h-35v-974q1 -7 -0.5 -24.5z" />
<glyph unicode="V" horiz-adv-x="1161" d="M20 1432l549 -1432l531 1434h-39l-492 -1334l-510 1332h-39z" />
<glyph unicode="W" horiz-adv-x="1634" d="M61 1430l381 -1434l373 1112l369 -1108l389 1430h-47l-346 -1278l-363 1093l-368 -1098l-343 1283h-45z" />
<glyph unicode="X" horiz-adv-x="1241" d="M61 0l519 719l-512 715h43l491 -684l490 680h43l-512 -711l516 -719h-43l-496 688l-494 -688h-45z" />
<glyph unicode="Y" horiz-adv-x="1167" d="M41 1434h43l500 -736l499 736h43l-524 -770v-664h-37v664z" />
<glyph unicode="Z" horiz-adv-x="1273" d="M102 6l1037 -6v35l-969 4l1001 1395h-1040v-35h973z" />
<glyph unicode="[" />
<glyph unicode="\" d="M334 1421l35 15l583 -1420l-34 -16z" />
<glyph unicode="]" />
<glyph unicode="^" />
<glyph unicode="_" d="M158 -84v-41h921v41h-921z" />
<glyph unicode="a" horiz-adv-x="1179" d="M61 14l510 1420h37l510 -1418l-37 -14l-215 596h-553l-215 -598zM328 637h524l-262 731z" />
<glyph unicode="b" horiz-adv-x="1101" d="M102 0l394 2h2q88 0 182 16q208 39 301 136q80 77 80 190q0 152 -98 246q-102 95 -295 129q-77 12 -170 12l-357 2v660h359v39h-398v-19v-1390v-23zM131 700l367 -2q118 0 233 45q240 90 240 320q-3 149 -97 237q-38 37 -91 64.5t-96 40t-92 19.5t-66 7.5t-31 0.5l2 -39 q13 0 26 -0.5t60 -6.5t87 -17t90 -36t85 -59q84 -81 84 -211q0 -203 -213 -283q-49 -19 -105 -31.5t-82 -15t-34 -2.5h-367v-31zM141 41v653l357 -2h2h37.5t79 -6.5t108.5 -18.5t111 -39.5t100 -66.5q86 -83 86 -217q0 -96 -68 -164q-39 -39 -102.5 -68t-117.5 -42 t-117 -20.5t-84 -8t-37 -0.5h-355z" />
<glyph unicode="c" horiz-adv-x="1200" d="M102 676q0 201 55.5 367t155.5 266q128 125 303 125h5q97 -1 176.5 -21t122 -42t77 -56t41.5 -45.5t14 -27.5l1 -1l-21 -6l-20 -8q-17 41 -72 80q-116 84 -319 84h-8q-156 0 -269 -113q-96 -92 -149 -260q-50 -155 -50 -342q0 -290 113 -459q117 -173 332 -176h12 q96 0 174.5 17.5t122.5 42t74 49t41 42.5l10 17l39 -16q0 -3 -8 -16.5t-32 -38.5t-56 -46q-134 -92 -365 -92h-12q-229 3 -358.5 182t-129.5 494z" />
<glyph unicode="d" horiz-adv-x="1128" d="M102 0h37h283h8q64 0 143 18q172 40 289 152q185 182 185 510q0 392 -207 590q-115 110 -275 145q-36 8 -69.5 13t-48 4.5t-21.5 -0.5h-324v-1409v-23zM145 43v1348h281h2h26t60.5 -7.5t92 -21.5t100 -46t104.5 -77q193 -184 193 -559q0 -315 -173 -479q-47 -46 -108 -79 t-106.5 -47.5t-98 -22.5t-66 -8.5t-28.5 -0.5h-279z" />
<glyph unicode="e" horiz-adv-x="946" d="M102 0h742v41h-701v1350h701v43l-742 -2v-1432zM119 694h641v41h-641v-41z" />
<glyph unicode="f" horiz-adv-x="946" d="M102 0v1432l742 2v-41l-701 -2v-656h617v-41h-617v-694h-41z" />
<glyph unicode="g" horiz-adv-x="1499" d="M102 719q0 -158 54 -296t155 -239q89 -89 205 -136.5t244 -47.5h2q82 0 158 13.5t127.5 30t107.5 44.5t83 46t68 47.5t50 35.5l10 6v449h-47v-424q-2 -1 -47.5 -34t-66.5 -46t-77 -41.5t-102.5 -42.5t-117.5 -26.5t-146 -12.5q-119 0 -227 44.5t-191 127.5 q-95 94 -146 223.5t-51 278.5q0 137 53.5 261.5t153.5 219.5q93 90 210.5 139.5t236.5 49.5q89 0 175.5 -16t144.5 -37t106 -45t68.5 -37.5t23.5 -16.5l29 37l-8 5q-7 5 -19.5 13t-29.5 17.5t-41 21.5t-50 23q-186 80 -399 80q-127 0 -252 -53t-225 -148 q-107 -101 -164.5 -234.5t-57.5 -279.5z" />
<glyph unicode="h" horiz-adv-x="1064" d="M102 0h41v1423h-41v-1423zM123 688h817v41h-817v-41zM922 12h41v1422h-41v-1422z" />
<glyph unicode="i" horiz-adv-x="364" d="M164 0h37v1434h-37v-1434z" />
<glyph unicode="j" horiz-adv-x="880" d="M101 250v-10q0 -24 8 -62q10 -46 38 -82q78 -96 263 -96q2 0 2 2q202 0 284 148q41 76 41 145v1139h-41v-1139q-2 -66 -37 -127q-69 -124 -247 -127q-167 0 -232 80q-9 11 -15.5 22.5t-10.5 23t-6.5 22.5t-3.5 21.5t-1.5 19.5t0 16.5t1 13t0.5 8.5l1 4l-39 9 q-3 -6 -5 -31z" />
<glyph unicode="k" horiz-adv-x="1001" d="M102 4v1423h41v-665l729 672l27 -29l-631 -582l617 -798l-31 -25l-616 797l-95 -88v-705h-41z" />
<glyph unicode="l" horiz-adv-x="937" d="M102 0l795 2v41l-754 -2v1393h-41v-1434z" />
<glyph unicode="m" horiz-adv-x="1449" d="M102 6h41v1331l547 -1104l557 1094v-1327h39v1411l-37 10l-559 -1097l-549 1110l-39 -11v-1417z" />
<glyph unicode="n" horiz-adv-x="1392" d="M102 0v1434l1090 -1325v1323h37v-1430l-1090 1327v-1329h-37z" />
<glyph unicode="o" horiz-adv-x="1486" d="M102 717q0 194 86 359.5t233.5 261.5t321.5 96t321.5 -96t233.5 -261.5t86 -359.5t-86 -359.5t-233.5 -261.5t-321.5 -96t-321.5 96t-233.5 261.5t-86 359.5zM143 721q0 -137 47.5 -261.5t127.5 -214.5t191.5 -143t233.5 -53q163 0 302 90t220 245t81 337 q0 183 -81 338.5t-220 245.5t-302 90q-122 0 -233.5 -53.5t-191.5 -143.5t-127.5 -215t-47.5 -262z" />
<glyph unicode="p" horiz-adv-x="1058" d="M102 0h39v688h484q177 0 260 92q70 81 70 234q0 41 -5 88q-22 210 -188 291q-82 41 -162 41h-498v-1434zM141 727v670h459q67 0 145 -39q147 -75 168 -260q4 -43 4 -81q0 -141 -61 -210q-74 -80 -231 -80h-484z" />
<glyph unicode="q" horiz-adv-x="1478" d="M102 715q0 193 85 357t232 259.5t320 95.5t320 -95.5t232 -259.5t85 -357q0 -165 -62 -309t-171 -244l145 -133l-31 -35l-151 137q-166 -131 -367 -131q-130 0 -248 56.5t-203 152.5t-135.5 228t-50.5 278zM141 719q0 -182 80 -336t218 -244t300 -90q180 0 332 113 l-127 114l31 35l133 -118q106 93 167.5 230.5t61.5 295.5q0 136 -47 259.5t-127 213t-191 142t-233 52.5t-232.5 -52.5t-190.5 -142t-127.5 -213t-47.5 -259.5z" />
<glyph unicode="r" horiz-adv-x="1071" d="M102 6v1428h496q80 0 162 -41q68 -34 121 -104t65 -185q5 -47 5 -88q0 -153 -70 -234q-83 -92 -258 -92h-2l348 -690h-45l-344 690h-439v-684h-39zM141 729h482q158 0 229 80q61 69 61 210q0 38 -4 81q-21 182 -166 258q-78 39 -145 39h-457v-668z" />
<glyph unicode="s" horiz-adv-x="1134" d="M57 291q0 -154 176 -232q132 -59 314 -59q251 0 385 104q121 92 121 242q0 192 -90 279q-27 27 -64.5 45.5t-69 27.5t-87 13.5t-83.5 5t-92 0.5q-26 -1 -53 -1t-55 1q-56 2 -104.5 8t-94 25.5t-76.5 50.5q-86 86 -86 282q0 56 29.5 110t83.5 97q132 105 344 105 q152 0 248 -41q79 -29 135 -88q60 -63 72 -131l37 6q0 5 -5 22.5t-24.5 55t-48.5 69.5q-60 63 -150 101q-115 45 -264 45q-226 0 -369 -115q-59 -47 -92 -109.5t-33 -126.5q0 -212 97 -309q36 -35 82 -56.5t106 -29.5t104 -10q26 -1 63 0h54h51h60q41 -2 95.5 -8.5t94 -24.5 t68.5 -47q80 -77 80 -252q0 -130 -109 -213q-129 -96 -360 -96q-170 0 -299 57q-152 68 -152 197h-39z" />
<glyph unicode="t" horiz-adv-x="1081" d="M20 1399h1041v35h-1041v-35zM528 0h35v1411h-35v-1411z" />
<glyph unicode="u" horiz-adv-x="1255" d="M101.5 428.5q-1.5 -17.5 5.5 -52.5t17 -71.5t35 -81t60 -80.5q134 -143 404 -143q273 0 409 145q35 36 60.5 81.5t36.5 79t17 72.5t6.5 50.5t0.5 24.5v981h-37v-981v-22.5t-5.5 -47t-15.5 -67t-32.5 -74t-54.5 -74.5q-130 -133 -385 -133q-252 0 -379 133 q-107 111 -107 285v974h-35v-974q1 -7 -0.5 -24.5z" />
<glyph unicode="v" horiz-adv-x="1161" d="M20 1432l549 -1432l531 1434h-39l-492 -1334l-510 1332h-39z" />
<glyph unicode="w" horiz-adv-x="1634" d="M61 1430l381 -1434l373 1112l369 -1108l389 1430h-47l-346 -1278l-363 1093l-368 -1098l-343 1283h-45z" />
<glyph unicode="x" horiz-adv-x="1241" d="M61 0l519 719l-512 715h43l491 -684l490 680h43l-512 -711l516 -719h-43l-496 688l-494 -688h-45z" />
<glyph unicode="y" horiz-adv-x="1167" d="M41 1434h43l500 -736l499 736h43l-524 -770v-664h-37v664z" />
<glyph unicode="z" d="M102 6l1037 -6v35l-969 4l1001 1395h-1040v-35h973z" />
<glyph unicode="{" />
<glyph unicode="|" />
<glyph unicode="}" />
<glyph unicode="&#xa1;" />
<glyph unicode="&#xa6;" />
<glyph unicode="&#xa7;" />
<glyph unicode="&#xa9;" />
<glyph unicode="&#xab;" />
<glyph unicode="&#xad;" horiz-adv-x="942" d="M164 698h614v35h-614v-35z" />
<glyph unicode="&#xae;" />
<glyph unicode="&#xb0;" />
<glyph unicode="&#xb6;" />
<glyph unicode="&#xb7;" d="M504 565q0 -51 36 -87t87 -36t87 36t36 87t-36 87t-87 36t-87 -36t-36 -87z" />
<glyph unicode="&#xbb;" />
<glyph unicode="&#xbf;" />
<glyph unicode="&#x2000;" horiz-adv-x="718" />
<glyph unicode="&#x2001;" horiz-adv-x="1436" />
<glyph unicode="&#x2002;" horiz-adv-x="718" />
<glyph unicode="&#x2003;" horiz-adv-x="1436" />
<glyph unicode="&#x2004;" horiz-adv-x="478" />
<glyph unicode="&#x2005;" horiz-adv-x="359" />
<glyph unicode="&#x2006;" horiz-adv-x="239" />
<glyph unicode="&#x2007;" horiz-adv-x="239" />
<glyph unicode="&#x2008;" horiz-adv-x="179" />
<glyph unicode="&#x2009;" horiz-adv-x="287" />
<glyph unicode="&#x200a;" horiz-adv-x="79" />
<glyph unicode="&#x2010;" horiz-adv-x="942" d="M164 698h614v35h-614v-35z" />
<glyph unicode="&#x2011;" horiz-adv-x="942" d="M164 698h614v35h-614v-35z" />
<glyph unicode="&#x2012;" horiz-adv-x="942" d="M164 698h614v35h-614v-35z" />
<glyph unicode="&#x2013;" horiz-adv-x="942" d="M164 692h614v35h-614v-35z" />
<glyph unicode="&#x2014;" />
<glyph unicode="&#x2018;" />
<glyph unicode="&#x2019;" />
<glyph unicode="&#x201a;" d="M172 10q0 -98 27 -98q16 0 39.5 39.5t23.5 58.5q0 20 -13 32.5t-32 12.5t-32 -12.5t-13 -32.5z" />
<glyph unicode="&#x201c;" />
<glyph unicode="&#x201d;" />
<glyph unicode="&#x201e;" d="M172 10q0 -98 27 -98q16 0 39.5 39.5t23.5 58.5q0 20 -13 32.5t-32 12.5t-32 -12.5t-13 -32.5zM172 10q0 -98 27 -98q16 0 39.5 39.5t23.5 58.5q0 20 -13 32.5t-32 12.5t-32 -12.5t-13 -32.5z" />
<glyph unicode="&#x2022;" horiz-adv-x="970" d="M520 684q0 -41 31 -71.5t72 -30.5q42 0 72 30t30 72q0 43 -29.5 72.5t-72.5 29.5q-42 0 -72.5 -30t-30.5 -72z" />
<glyph unicode="&#x2026;" />
<glyph unicode="&#x202f;" horiz-adv-x="287" />
<glyph unicode="&#x2039;" />
<glyph unicode="&#x203a;" />
<glyph unicode="&#x205f;" horiz-adv-x="359" />
<glyph unicode="&#x2122;" horiz-adv-x="2531" d="M20 1399h1041v35h-1041v-35zM528 0h35v1411h-35v-1411zM1184 6h41v1331l547 -1104l557 1094v-1327h38v1411l-36 10l-559 -1097l-549 1110l-39 -11v-1417z" />
<glyph unicode="&#x25fc;" horiz-adv-x="1433" d="M0 0v1434h1434v-1434h-1434z" />
</font>
</defs>
</svg>
